<?xml version="1.0" standalone="no"?>
<!DOCTYPE svg PUBLIC "-//W3C//DTD SVG 20010904//EN"
 "http://www.w3.org/TR/2001/REC-SVG-20010904/DTD/svg10.dtd">
<svg version="1.0" xmlns="http://www.w3.org/2000/svg"
 width="754.000000pt" height="754.000000pt" viewBox="0 0 754.000000 754.000000"
 preserveAspectRatio="xMidYMid meet">
<metadata>
Created by potrace 1.11, written by Peter Selinger 2001-2013
</metadata>
<g transform="translate(0.000000,754.000000) scale(0.100000,-0.100000)"
fill="#000000" stroke="none">
<path d="M3657 7494 c-1 -1 -87 -4 -192 -8 -104 -3 -206 -8 -225 -10 -19 -3
-62 -7 -95 -10 -61 -5 -92 -9 -180 -22 -27 -4 -59 -8 -70 -9 -69 -8 -326 -64
-440 -96 -331 -94 -617 -224 -883 -401 -155 -104 -254 -186 -402 -336 -312
-316 -536 -694 -689 -1164 -37 -116 -114 -412 -126 -488 -3 -19 -10 -57 -15
-85 -5 -27 -12 -70 -15 -95 -3 -25 -10 -70 -15 -100 -13 -79 -25 -198 -37
-365 -11 -137 -10 -837 1 -960 4 -55 9 -113 11 -130 3 -34 13 -125 20 -170 2
-16 6 -48 9 -70 3 -22 8 -51 10 -65 3 -14 8 -43 11 -64 25 -174 110 -505 178
-696 177 -491 414 -874 747 -1209 544 -547 1284 -848 2230 -907 212 -14 766
-7 871 11 13 2 58 6 99 9 41 3 86 8 100 10 14 3 50 7 81 11 31 3 66 7 76 9 11
3 44 7 74 11 30 4 133 22 229 41 215 43 199 39 294 64 44 11 81 20 83 20 1 0
3 261 3 580 l0 581 -37 -7 c-21 -4 -60 -13 -88 -20 -130 -35 -420 -86 -570
-99 -27 -3 -63 -7 -80 -10 -117 -18 -630 -25 -850 -12 -357 22 -632 69 -870
149 -98 33 -254 101 -297 130 -14 10 -29 18 -32 18 -12 0 -153 99 -213 148
-187 157 -351 384 -447 622 -15 36 -31 74 -36 85 -12 28 -45 127 -70 214 -31
106 -74 311 -85 401 -3 25 -7 56 -10 70 -2 14 -7 54 -11 90 -3 36 -7 79 -9 95
-15 129 -19 266 -19 565 1 392 5 477 40 745 40 307 113 563 229 800 101 208
196 340 341 473 76 70 231 182 251 182 6 0 13 4 15 8 5 12 148 79 242 114 138
50 325 90 521 113 28 3 65 7 83 10 201 24 903 25 1031 0 10 -2 50 -6 90 -10
40 -3 82 -8 94 -11 12 -2 42 -6 67 -9 99 -13 343 -59 473 -91 76 -19 142 -34
146 -34 4 0 7 257 7 572 l-1 572 -70 24 c-137 46 -379 104 -595 142 -83 15
-225 33 -360 45 -36 4 -78 8 -95 10 -53 7 -522 23 -528 19z"/>
<path d="M5425 5453 c-119 -16 -127 -18 -186 -32 -485 -114 -906 -454 -1119
-903 -66 -141 -119 -301 -135 -413 -3 -22 -8 -46 -11 -54 -15 -44 -21 -278
-10 -401 60 -691 560 -1281 1236 -1459 389 -102 806 -59 1165 120 93 47 179
97 215 126 8 7 41 32 73 57 89 68 163 140 270 265 94 109 230 358 281 516 22
68 47 164 62 240 28 140 25 476 -6 595 -5 19 -11 51 -14 70 -12 79 -93 295
-150 400 -229 421 -605 716 -1061 834 -33 8 -76 18 -95 21 -19 3 -42 8 -50 10
-79 21 -333 25 -465 8z"/>
</g>
</svg>
